<?xml version="1.0" standalone="no"?>
<!DOCTYPE svg PUBLIC "-//W3C//DTD SVG 20010904//EN"
 "http://www.w3.org/TR/2001/REC-SVG-20010904/DTD/svg10.dtd">
<svg version="1.0" xmlns="http://www.w3.org/2000/svg"
 width="369.000000pt" height="339.000000pt" viewBox="0 0 369.000000 339.000000"
 preserveAspectRatio="xMidYMid meet">

<g transform="translate(0.000000,339.000000) scale(0.100000,-0.100000)"
fill="#000000" stroke="none">
<path d="M260 3268 c-53 -27 -76 -64 -102 -161 -39 -152 -51 -252 -45 -411 5
-159 18 -223 69 -336 66 -146 232 -292 410 -360 45 -17 87 -36 92 -41 6 -5 13
-64 17 -132 13 -224 51 -389 121 -535 64 -132 145 -224 238 -272 19 -10 43
-26 52 -37 36 -40 98 -185 137 -320 84 -297 166 -392 367 -428 152 -27 267
-14 389 44 175 83 282 212 386 465 34 84 65 120 187 225 77 65 125 135 158
230 51 147 50 353 -3 460 -31 64 -94 128 -160 162 l-48 24 -390 -3 c-445 -4
-419 2 -451 -95 -36 -110 10 -226 111 -280 36 -20 61 -22 270 -27 203 -4 233
-7 258 -24 20 -13 27 -27 27 -50 0 -27 -16 -49 -95 -133 -53 -56 -105 -112
-115 -126 -26 -33 -82 -147 -141 -285 -67 -158 -111 -202 -205 -202 -28 0 -66
9 -90 21 -78 37 -93 65 -184 335 -46 137 -94 266 -108 287 -14 20 -50 53 -81
71 -112 69 -179 166 -222 323 -19 68 -21 95 -16 218 3 77 11 163 19 190 12 44
18 52 58 72 101 49 176 56 565 54 741 -4 797 -15 993 -185 94 -81 120 -91 227
-90 153 1 284 64 420 199 93 92 140 173 180 310 23 76 28 116 32 260 9 263
-26 383 -146 506 -68 70 -103 78 -143 30 -44 -52 -53 -107 -40 -260 20 -246
-19 -388 -133 -489 -50 -44 -123 -82 -156 -82 -12 0 -53 21 -91 46 -126 84
-277 136 -528 180 -119 21 -692 30 -931 14 -211 -13 -364 -47 -584 -130 -73
-27 -145 -50 -160 -50 -71 0 -159 70 -198 158 -54 120 -61 161 -62 388 -1 198
-3 213 -23 246 -20 32 -45 47 -77 48 -6 0 -31 -10 -55 -22z"/>
</g>
</svg>
