<svg width="464" height="410" viewBox="0 0 464 410" fill="none" xmlns="http://www.w3.org/2000/svg">
<path d="M19.7948 2.93335C12.7281 6.53335 9.66143 11.4667 6.19477 24.4C0.994765 44.6667 -0.605235 58 0.194765 79.2C0.861432 100.4 2.59477 108.933 9.39477 124C18.1948 143.467 40.3281 162.933 64.0614 172C70.0614 174.267 75.6614 176.8 76.3281 177.467C77.1281 178.133 78.0614 186 78.5948 195.067C80.3281 224.933 85.3948 246.933 94.7281 266.4C103.261 284 114.061 296.267 126.461 302.667C128.995 304 132.195 306.133 133.395 307.6C138.195 312.933 146.461 332.267 151.661 350.267C162.861 389.867 173.795 402.533 200.595 407.333C220.861 410.933 236.195 409.2 252.461 401.467C275.795 390.4 290.061 373.2 303.928 339.467C308.461 328.267 312.595 323.467 328.861 309.467C339.128 300.8 345.528 291.467 349.928 278.8C356.728 259.2 356.595 231.733 349.528 217.467C345.395 208.933 336.995 200.4 328.195 195.867L321.795 192.667L269.795 193.067C210.461 193.6 213.928 192.8 209.661 205.733C204.861 220.4 210.995 235.867 224.461 243.067C229.261 245.733 232.595 246 260.461 246.667C287.528 247.2 291.528 247.6 294.861 249.867C297.528 251.6 298.461 253.467 298.461 256.533C298.461 260.133 296.328 263.067 285.795 274.267C278.728 281.733 271.795 289.2 270.461 291.067C266.995 295.467 259.528 310.667 251.661 329.067C242.728 350.133 236.861 356 224.328 356C220.595 356 215.528 354.8 212.328 353.2C201.928 348.267 199.928 344.533 187.795 308.533C181.661 290.267 175.261 273.067 173.395 270.267C171.528 267.6 166.728 263.2 162.595 260.8C147.661 251.6 138.728 238.667 132.995 217.733C130.461 208.667 130.195 205.067 130.861 188.667C131.261 178.4 132.328 166.933 133.395 163.333C134.995 157.467 135.795 156.4 141.128 153.733C154.595 147.2 164.595 146.267 216.461 146.533C315.261 147.067 322.728 148.533 348.861 171.2C361.395 182 364.861 183.333 379.128 183.2C399.528 183.067 416.995 174.667 435.128 156.667C447.528 144.4 453.795 133.6 459.128 115.333C462.195 105.2 462.861 99.8667 463.395 80.6667C464.595 45.6 459.928 29.6 443.928 13.2C434.861 3.86668 430.195 2.80002 424.861 9.20002C418.995 16.1333 417.795 23.4667 419.528 43.8667C422.195 76.6667 416.995 95.6 401.795 109.067C395.128 114.933 385.395 120 380.995 120C379.395 120 373.928 117.2 368.861 113.867C352.061 102.667 331.928 95.7333 298.461 89.8667C282.595 87.0667 206.195 85.8667 174.328 88C146.195 89.7333 125.795 94.2667 96.4614 105.333C86.7281 108.933 77.1281 112 75.1281 112C65.6614 112 53.9281 102.667 48.7281 90.9333C41.5281 74.9333 40.5948 69.4667 40.4614 39.2C40.3281 12.8 40.0614 10.8 37.3948 6.40002C34.7281 2.13335 31.3948 0.13335 27.1281 1.62481e-05C26.3281 1.62481e-05 22.9948 1.33335 19.7948 2.93335Z" fill="white"/>
</svg>
