<svg width="652" height="652" viewBox="0 0 652 652" fill="none" xmlns="http://www.w3.org/2000/svg">
<path d="M322 71C183.9 71 72 182.9 72 321C72 459.1 183.9 571 322 571C460.1 571 572 459.1 572 321C572 182.9 460.1 71 322 71Z" fill="white"/>
<path d="M322.4 506.8C220 506.8 137 423.8 137 321.4C137 219 220 136 322.4 136C424.8 136 507.8 219 507.8 321.4C507.8 423.8 424.8 506.8 322.4 506.8Z" fill="white"/>
<path d="M322 135.6C219.6 135.6 136.6 218.6 136.6 321C136.6 423.4 219.6 506.4 322 506.4C424.4 506.4 507.4 423.4 507.4 321C507.4 218.6 424.4 135.6 322 135.6ZM322 571C183.9 571 72 459.1 72 321C72 182.9 183.9 71 322 71C460.1 71 572 182.9 572 321C572 459.1 460.1 571 322 571Z" fill="#0054A4"/>
<path d="M108.2 416L105.6 409.1L121.9 388V387.9L100.7 395.8L98.3 389.3L129.9 377.5L132.5 384.5L116.2 405.6V405.7L137.4 397.8L139.8 404.3L108.2 416ZM128.6 373.7L127.2 366.3L119.3 365.1L117 352.7L123.9 348.8L122.5 341.2L91.6 359.8L93 367.3L128.6 373.7ZM100.6 362.1L112 355.6L113.6 364.2L100.6 362.1ZM122.6 333L122.3 325.6L94.8 326.7L94.4 316.6L88.2 316.9L89.3 344.6L95.5 344.3L95.1 334.2L122.6 333ZM122.5 310.2L123 302.8L89.3 300.4L88.8 307.8L122.5 310.2ZM92.6 273C90.5 283.2 96.9 290.8 106.7 292.9C116.2 294.9 125.1 290.5 127.3 280.2C129.4 270 123 262.3 113.5 260.4C103.6 258.3 94.7 262.8 92.6 273ZM121.1 279C119.7 285.5 113.7 286.8 108.2 285.7C102.4 284.5 97.4 280.9 98.7 274.4C100.1 267.9 106.1 266.6 111.9 267.8C117.5 268.8 122.5 272.4 121.1 279ZM131.8 258.2L134.5 251.8L113.6 243.2V243.1L139.9 238.7L142.7 231.8L111.5 218.9L108.9 225.3L129.8 233.9V234L103.5 238.4L100.7 245.2L131.8 258.2ZM144.3 228.2L148.3 221.8L143.4 215.5L150.2 204.8L157.9 206.7L162 200.2L126.7 192.8L122.6 199.2L144.3 228.2ZM131.7 200.6L144.5 203.6L139.8 211L131.7 200.6ZM164.8 197.3L180.6 179.4L175.9 175.3L165 187.6L144.3 169.4L139.4 175L164.8 197.3ZM195.5 165.8L201.6 161.5L193.2 149.6L204.4 141.7L212.8 153.6L218.9 149.3L199.4 121.7L193.3 126L200.8 136.6L189.6 144.5L182.1 133.9L176 138.2L195.5 165.8ZM225.9 145.8L232.5 142.3L216.8 112.5L210.2 116L225.9 145.8ZM263 129.9L267.4 128.3L261.1 111.2L247.8 116L249.7 121.2L256.7 118.6C257.9 123.1 256.2 126.6 251.7 128.2C245.4 130.5 241.1 126 239.2 120.8C237.2 115.3 237.6 109.1 243.8 106.8C247.1 105.6 250.4 106.4 252.5 109.7L259.2 107.2C255.8 100.3 248.2 98.5 241.7 100.9C231.9 104.5 228.8 114 232.3 123.4C235.7 132.5 244.1 137.8 253.9 134.1C257 133 259.7 130.6 261 126.5L263 129.9ZM274.1 126.5L281.4 125.3L279 110.9L292.5 108.6L295 123L302.3 121.7L296.6 88.4L289.3 89.7L291.5 102.5L278 104.8L275.8 92L268.5 93.2L274.1 126.5ZM323.5 109.6C322.8 117.9 329.5 122.1 337 122.6C346.2 123.3 351.4 119 351.8 112.8C352.4 105.2 344.9 103 342.5 102.3C334.2 99.5 332.6 99.1 332.8 96.5C333 93.7 335.8 92.9 338.2 93.1C341.7 93.4 344.5 94.6 344.5 98.7L351.7 99.2C352.3 91.4 346 87.9 339 87.4C332.9 87 326.2 89.8 325.7 96.7C325.2 103 330.1 105.3 335 107C339.9 108.7 344.9 109.7 344.6 113.3C344.4 116.7 340.3 117.2 337.7 117C333.7 116.7 330.4 114.7 330.7 110.2L323.5 109.6ZM390.6 109.1C391.6 101.3 386.6 95.6 379.4 93.8C369.2 91.3 361.4 97.4 359 107.1C356.7 116.6 360.7 125.6 370.9 128.1C378.9 130.1 385.9 126.3 388.6 118.3L381.6 116.6C380 120.8 376.7 123.2 372.3 122.1C365.8 120.5 364.8 114.4 366.1 108.9C367.5 103.2 371.3 98.3 377.8 99.9C381.4 100.8 383.9 104 383.5 107.4L390.6 109.1ZM391.1 133L397.9 136.1L403.9 122.8L416.4 128.4L410.4 141.7L417.2 144.8L431 113.9L424.2 110.8L418.9 122.6L406.4 117L411.7 105.2L404.9 102.1L391.1 133ZM455.8 128.6C447.2 122.6 437.7 125.5 432 133.7C426.4 141.7 427 151.6 435.6 157.6C444.2 163.6 453.7 160.7 459.3 152.7C464.9 144.5 464.4 134.6 455.8 128.6ZM439.1 152.5C433.6 148.7 434.8 142.6 438 138C441.4 133.1 446.7 129.9 452.2 133.7C457.7 137.5 456.5 143.6 453.1 148.5C449.9 153.1 444.6 156.3 439.1 152.5ZM489.4 157.1C482.1 149.6 472.2 150.7 465 157.7C458 164.5 456.8 174.4 464.1 181.8C471.4 189.3 481.3 188.2 488.3 181.4C495.5 174.4 496.8 164.6 489.4 157.1ZM468.6 177.5C463.9 172.7 466.2 167 470.3 163C474.5 158.9 480.3 156.7 485 161.5C489.7 166.3 487.4 172 483.1 176.2C479.1 180.1 473.3 182.3 468.6 177.5ZM479.8 198.1L493.5 217.7L498.6 214.1L489.2 200.6L511.8 184.9L507.6 178.8L479.8 198.1ZM503.1 235.5L505.8 242.4L518.1 237.6L520.8 244.5C522.2 248 521.2 249.8 518.1 251.6C515.7 252.9 512.6 254 511 255.6L513.7 262.5C515 260.6 518.7 259.2 520.6 258.3C523.7 256.8 526.6 254.6 526.2 250.8H526.3C529.1 253.7 532.4 254.1 536.1 252.7C540.9 250.8 543.4 245.7 541.2 240.1L534.6 223.1L503.1 235.5ZM531.9 232.3L534.9 239.9C536.1 243 535.4 245.2 532.4 246.4C529.2 247.6 527.2 246.5 526 243.4L523 235.8L531.9 232.3ZM552.1 276.8C550.1 266.5 541.3 262 531.5 263.8C521.9 265.6 515.4 273.1 517.4 283.4C519.4 293.7 528.2 298.2 537.8 296.4C547.6 294.5 554.1 287 552.1 276.8ZM523.5 282.2C522.2 275.7 527.3 272.1 532.9 271.1C538.7 270 544.8 271.4 546 277.9C547.3 284.4 542.2 288 536.3 289.1C530.8 290.2 524.8 288.8 523.5 282.2ZM521.5 305.5L521.7 320.1C521.9 330.4 529.2 335.3 539 335.1C550.2 334.9 555.6 328.3 555.5 319.5L555.3 304.9L521.5 305.5ZM549.1 312.5L549.2 317.8C549.3 325.2 545 327.6 538.2 327.7C530.7 327.8 528 323.7 527.9 319.4L527.8 312.8L549.1 312.5ZM521 341.6L516.8 366.9L523 367.9L526 349.9L534.2 351.2L531.5 367.4L537.2 368.3L539.8 352.1L546.9 353.3L544 370.9L550.2 371.9L554.3 347L521 341.6ZM543.2 398.5C546.7 388.6 541.3 380.2 531.9 376.9C522.7 373.7 513.3 376.9 509.8 386.8C506.3 396.7 511.7 405.1 520.9 408.3C530.3 411.6 539.7 408.4 543.2 398.5ZM515.7 388.9C517.9 382.6 524.1 382.1 529.4 384C535 386 539.5 390.2 537.3 396.5C535.1 402.8 528.9 403.3 523.3 401.3C518 399.4 513.5 395.2 515.7 388.9ZM146.9 436.3C144.3 432.4 139.1 431.3 135.2 433.9C131.3 436.5 130.2 441.7 132.8 445.6C135.4 449.5 140.6 450.6 144.5 448C148.5 445.4 149.5 440.2 146.9 436.3ZM147.8 479.4L153.2 484.6L160.3 481L169.4 489.7L166 496.9L171.6 502.2L185.8 469L180.3 463.7L147.8 479.4ZM177.3 472.4L171.9 484.4L165.6 478.3L177.3 472.4ZM184.2 497.8C179.4 504.6 183.1 511.6 189.3 515.8C196.9 521 203.5 519.9 207 514.8C211.3 508.5 206 502.9 204.3 501C198.5 494.4 197.4 493.2 198.9 491.1C200.5 488.8 203.3 489.5 205.3 490.8C208.2 492.8 210 495.3 207.9 498.8L213.8 502.9C218.2 496.5 214.6 490.3 208.8 486.3C203.8 482.9 196.5 481.9 192.6 487.6C189 492.8 192.1 497.3 195.5 501.2C198.9 505.1 202.7 508.5 200.6 511.5C198.6 514.4 194.9 512.7 192.8 511.3C189.5 509.1 187.6 505.6 190.2 501.9L184.2 497.8ZM214.2 517.5C210.6 525 215.3 531.3 222.1 534.5C230.4 538.4 236.8 536.3 239.4 530.7C242.7 523.8 236.5 519.1 234.5 517.5C227.8 511.9 226.4 510.9 227.6 508.6C228.8 506 231.7 506.3 233.9 507.3C237.1 508.8 239.3 511 237.8 514.8L244.3 517.9C247.6 510.8 243.1 505.3 236.7 502.3C231.2 499.7 223.9 499.9 220.9 506.2C218.2 511.9 222 515.8 225.9 519.2C229.8 522.5 234.2 525.2 232.6 528.5C231.1 531.6 227.2 530.6 224.9 529.5C221.3 527.8 218.9 524.7 220.8 520.7L214.2 517.5ZM269.7 514.4C259.6 511.7 251.6 517.6 249 527.3C246.5 536.7 250.4 545.8 260.5 548.6C270.6 551.3 278.6 545.4 281.1 536C283.7 526.3 279.8 517.1 269.7 514.4ZM262.1 542.6C255.7 540.9 254.7 534.7 256.2 529.3C257.7 523.6 261.6 518.8 268.1 520.5C274.5 522.2 275.5 528.4 273.9 534.1C272.4 539.5 268.5 544.3 262.1 542.6ZM320.5 534C320.2 526.1 314.3 521.3 306.9 520.7C296.5 519.9 289.7 527.2 288.9 537.2C288.1 546.9 293.7 555.2 304.1 556C312.3 556.6 318.6 551.7 320 543.4L312.8 542.8C311.9 547.2 309.1 550.1 304.6 549.7C298 549.2 295.9 543.3 296.3 537.7C296.8 531.8 299.7 526.3 306.4 526.9C310.1 527.2 313.1 530 313.3 533.4L320.5 534ZM330.4 555.8L337.8 555.4L336.1 521.7L328.7 522.1L330.4 555.8ZM346.9 555.2L354.3 553.9L355.6 546L368 543.8L371.8 550.8L379.4 549.5L361.1 518.4L353.6 519.7L346.9 555.2ZM358.8 527.2L365.2 538.7L356.6 540.2L358.8 527.2ZM392.4 545.2L399.5 542.9L390.8 516.8L400.4 513.6L398.4 507.7L372.1 516.4L374.1 522.3L383.7 519.1L392.4 545.2ZM418 535.5L424.7 532.4L410.4 501.8L403.7 504.9L418 535.5ZM430.4 489.5C421.6 495.2 420.7 505.1 426.1 513.5C431.4 521.7 440.8 524.9 449.6 519.2C458.4 513.5 459.3 503.6 454 495.5C448.6 487 439.2 483.8 430.4 489.5ZM446.2 514C440.6 517.6 435.4 514.2 432.4 509.5C429.2 504.5 428.2 498.4 433.8 494.8C439.4 491.2 444.6 494.6 447.8 499.6C450.8 504.2 451.8 510.3 446.2 514ZM472.8 501.6L477.9 496.8L462.4 480.4L462.5 480.3L488.2 487.1L493.6 482L470.4 457.4L465.3 462.2L480.9 478.7L480.8 478.8L455 472L449.6 477.1L472.8 501.6ZM497 436.3C494.4 440.2 495.5 445.4 499.4 448C503.3 450.6 508.5 449.5 511.1 445.6C513.7 441.7 512.6 436.4 508.7 433.9C504.8 431.3 499.6 432.4 497 436.3Z" fill="white"/>
<mask id="path-5-inside-1_1_2" fill="white">
<path d="M434.7 385.2C435.5 384.6 436.7 380.9 438.1 376.6C439.6 372 441.1 367.5 442.1 367.5C443.2 367.5 444 371.8 445 375.9C445.9 379.7 446.6 382.6 447 382.9C448.3 383.9 454.6 383.5 459.7 383.1C462.9 382.8 465.2 382.8 465.4 383.2C465.8 384.4 460.6 387 455.9 389.4C452.5 391.1 451 393.1 450.9 393.7C450.7 394.8 450.8 398 451.9 401.7C453.6 407.4 456 413.9 454.6 414.2C452.4 414.7 449.8 408.8 446.4 405C444.8 403.2 442.7 401.8 442.1 401.7C441.5 401.6 439.3 403.1 436.8 404.9C432.1 408.3 427.8 414 425.9 412.7C424.4 411.7 430.9 399.3 430.6 396.3C430.6 396 429.9 394.9 428.8 394.5C424.5 392.8 416.9 390.9 416.9 389.4C416.9 387.3 422.6 387.7 427.7 387C431.5 386.5 433.9 385.8 434.7 385.2ZM343.9 238.9C339.9 239.5 328.5 241.8 327.9 240.7C327.5 239.9 326.1 230.2 325 229.3C323.9 228.5 316.8 231 312.8 232C306.1 233.7 295 237.6 288.7 239.8C291.2 251.5 294.3 269.1 295.1 272.7C295.4 274.1 295.7 275.9 296 277.8C302.1 275.3 311.9 271.4 319.8 269.8C325.1 268.7 329.9 267.7 334.4 266.9C333.8 264.5 332.8 259.6 333.4 258.5C334.2 257 342.6 256 345.7 255.6C348.8 255.2 357.6 253.4 359.5 255.6C360.7 257.1 361.2 261.5 361.4 264C362 264 362.6 264.3 363.2 264.3C372.5 264.2 393.3 265.2 394.1 264.5C394.8 263.8 394 254.5 393.6 251.2C393 246 390.7 228.3 389.4 226.8C388.2 225.3 370.7 225.8 365.3 225.7C362.2 225.6 358.6 225.8 355 226C355.7 229.9 356.6 235.7 355.8 237.7C355.5 238.7 347.9 238.3 343.9 238.9ZM286.7 231.6C287 232.7 287.3 234 287.7 235.6C294.1 233.4 304.9 230.3 311.7 228.6C315.8 227.6 320.1 226.3 324.3 225.6C323.5 220.5 322.2 213.1 323.4 210.8C324.7 208.1 330.9 203.8 338 203.1C345.1 202.3 350.7 205.9 351.4 208.4C352.5 213.1 353.7 218.3 354.3 221.9C356.2 221.8 360.8 221.8 366.1 221.7C374.3 221.6 384.3 221.6 388.7 221.6C388.4 220.2 388.2 218.9 388 218C386.9 212.1 381.3 190.1 378.4 183.3C375.6 176.7 367.4 171.8 359.6 170.7C350.1 169.3 339.8 172.6 335.4 174.2C329.1 176.5 321.4 181 320.7 181.4C319.1 182.5 315.2 184.8 312.5 184.4C311.2 184.2 310.3 179.3 309.5 177.7C308.7 176.1 307 175.7 306 176.3C304.9 176.8 297.1 179.6 295.3 180.4C293.5 181.2 280.7 184.9 278 185.4C275.3 185.9 273.8 187.7 274.3 188.7C274.8 189.9 284.3 223.1 286.7 231.6ZM397.3 327.4C398.2 325 398.1 317.2 398.1 312.2C398.1 309.9 397.9 301.7 397.3 299.9C396.7 298.1 387.5 295.9 383.5 295.6C374.5 294.8 364.3 294.1 359.6 294.3C354.8 294.5 337.7 296.4 337.7 294.3C337.7 291.6 341.9 291.3 348.3 290.5C354.4 289.8 381.5 289.7 386.8 290.3C390.1 290.6 393.5 291.5 396.4 292.1C396.7 288.9 396.3 283.8 396.2 281.5C396.1 278.3 396.4 271.1 395.3 269.6C394.2 268.1 373.2 267.6 363.2 267.8C354.7 267.9 340.2 269.3 320.7 274.2C312.8 276.2 298.3 280.4 297.5 282.1C296.7 283.8 297.3 288.9 297.6 291.5C297.9 294.3 298.2 299.4 299.5 305.6C299.7 306.7 300.6 307.7 301.3 308.7C303.6 309.2 308.6 309.1 310.6 308.9C312.7 308.7 326.6 307.9 335.9 307.5C347.3 307 360.7 308.3 363.8 309.1C366.9 309.9 364.8 311.6 364.8 311.6C364.8 311.6 345.9 312.3 330.5 313C323.3 313.3 311.9 314.4 304.7 315.3C303.2 315.5 301.8 316 300.7 316.2C301 319.2 301.2 322.3 301.2 325.3C301.3 329.2 301.2 334.2 300.9 339.1C307.4 336.9 318.9 333.4 336.3 331.4C360.8 328.6 373.8 328.9 380 329.1C381 329.1 381.9 329.1 382.5 329.1C384.6 329.1 389.5 329.4 394.5 329.7C395.8 330 396.9 328.4 397.3 327.4ZM419.7 400.8C423.8 399.3 424.6 400.5 422.7 402.1C420.8 403.7 406.8 410.8 400.4 412.6C395.5 414 391.6 414.5 389.6 414.8C387.7 415 386.4 414.8 385.3 414.5C384.8 412.6 384.1 410.5 383.2 408.3C380.8 402.9 379.1 399.8 376.6 395.8C371.9 388.2 367.1 382.8 362.4 379.9C361.5 379.3 360.6 378.8 359.7 378.2C359.3 377.9 358.9 377.7 358.5 377.4V368.1C357.9 365.6 352 364.5 348.7 363.5C345.5 362.5 339 362.5 337.6 363.5C336.6 364.2 336.3 368.4 336.3 370.5C329.6 370.2 323.6 371.6 318.6 373.4C313 375.4 303.7 379 295.6 384C293.1 385.5 290.4 387.8 289.9 386.9C289.4 386 294.1 378.7 295.7 373.4C297.6 367.2 299.5 354.2 300.4 343.6C306.1 341.5 317.9 337.6 336.6 335.4C360.8 332.6 373.5 333.7 379.7 333.9C380.8 333.9 381.6 333.9 382.3 333.9C384.2 333.9 392.4 334.3 393.6 334.5C395.5 334.7 397.7 337.3 398.2 338.7C399.4 341.8 398.2 364.7 397.2 368.2C396.1 371.6 392.3 374.1 392.3 376C392.3 377.9 396 381.6 397.4 383.7C400.4 388.2 398.2 395.9 399.1 397.1C400.1 398.5 405.5 400.3 407.3 400.5C409.2 400.6 416.9 401.8 419.7 400.8ZM360.3 353.8C362.4 353.8 365.1 353.9 365.1 350.8C365.1 347.2 362.6 347.3 362.6 347.3C360.9 347.2 356.5 346.9 352.2 347C348.1 347.1 342.2 348 341.4 348C339.9 348 338 348.3 338 351.3C338 353.9 340.9 353.9 342.8 353.9C342.8 353.9 347.7 353.6 352.3 353.6C355.7 353.7 359.4 353.8 360.3 353.8ZM379.5 410C380.3 411.8 380.9 413.7 381.3 415.3C380.2 416.6 375 424.8 371.6 428.6C367.9 432.7 362.1 436.8 359.7 437.9C357.2 439 346.5 439.3 339.5 440.1C332.5 440.9 317.3 443.3 316.4 441.4C315.5 439.6 320.9 435.8 324.6 431.8C326.9 429.3 328.3 427.1 329.3 426C331.9 423.1 334.8 417.7 331 418C327.2 418.3 316.4 421.6 303.5 429.2C296.6 433.2 285 440.4 278.9 442.2C272.8 444 258.2 445.4 253.7 445.4C230 445.4 193.9 442.7 192.3 442.5C190.7 442.2 191.1 439.3 191.1 438C191.1 436.7 190.9 433 191.2 431.2C191.5 429.3 192.6 428.9 193.9 428.7C195.2 428.4 224.5 428.9 242 420.6C258.4 412.9 274.7 400.6 282.3 396C287.9 392.6 293.5 389.2 297.4 386.8C304.5 382.6 314.6 378.5 319.9 376.6C325.8 374.6 333.6 373.8 341.9 374.8C348.9 375.7 357.3 380.8 361 383.8C365 387 368.7 390.6 373.1 397.7C375.6 401.3 377.3 404.8 379.5 410ZM339.7 397.8C340.4 395.5 342.3 391.4 339.7 389.7C337.8 388.5 336.5 389.3 334.6 389.7C332.7 390.1 326.8 393.1 322.2 395.2C317.6 397.3 306 404.7 304.3 407C302.6 409.2 304.9 409.5 305.9 409.5C306.9 409.5 310.8 408.2 312.9 407.6C315 407 321.3 405.5 326.6 405.1C332.6 404.7 335.7 405.9 337.1 404.8C337 404.8 338.9 400.1 339.7 397.8ZM425.1 419.3C420.1 419.3 415.7 422.9 415.7 428.4C415.7 434 420.1 437.6 425.1 437.6C430.1 437.6 434.5 434 434.5 428.4C434.4 422.9 430 419.3 425.1 419.3ZM425.1 435.7C421.3 435.7 418.2 432.7 418.2 428.5C418.2 424.3 421.3 421.3 425.1 421.3C428.9 421.3 432 424.3 432 428.5C431.9 432.6 428.8 435.7 425.1 435.7ZM421.4 433.6H423.4V429.2H424.7L427.2 433.6H429.3L426.6 429.1C428.1 429 429.3 428.2 429.3 426.4C429.3 424.2 427.9 423.4 425.3 423.4H421.4V433.6ZM423.4 424.9H425.1C426 424.9 427.2 425.1 427.2 426.2C427.2 427.4 426.3 427.6 425.2 427.6H423.4V424.9Z"/>
</mask>
<path d="M434.7 385.2C435.5 384.6 436.7 380.9 438.1 376.6C439.6 372 441.1 367.5 442.1 367.5C443.2 367.5 444 371.8 445 375.9C445.9 379.7 446.6 382.6 447 382.9C448.3 383.9 454.6 383.5 459.7 383.1C462.9 382.8 465.2 382.8 465.4 383.2C465.8 384.4 460.6 387 455.9 389.4C452.5 391.1 451 393.1 450.9 393.7C450.7 394.8 450.8 398 451.9 401.7C453.6 407.4 456 413.9 454.6 414.2C452.4 414.7 449.8 408.8 446.4 405C444.8 403.2 442.7 401.8 442.1 401.7C441.5 401.6 439.3 403.1 436.8 404.9C432.1 408.3 427.8 414 425.9 412.7C424.4 411.7 430.9 399.3 430.6 396.3C430.6 396 429.9 394.9 428.8 394.5C424.5 392.8 416.9 390.9 416.9 389.4C416.9 387.3 422.6 387.7 427.7 387C431.5 386.5 433.9 385.8 434.7 385.2ZM343.9 238.9C339.9 239.5 328.5 241.8 327.9 240.7C327.5 239.9 326.1 230.2 325 229.3C323.9 228.5 316.8 231 312.8 232C306.1 233.7 295 237.6 288.7 239.8C291.2 251.5 294.3 269.1 295.1 272.7C295.4 274.1 295.7 275.9 296 277.8C302.1 275.3 311.9 271.4 319.8 269.8C325.1 268.7 329.9 267.7 334.4 266.9C333.8 264.5 332.8 259.6 333.4 258.5C334.2 257 342.6 256 345.7 255.6C348.8 255.2 357.6 253.4 359.5 255.6C360.7 257.1 361.2 261.5 361.4 264C362 264 362.6 264.3 363.2 264.3C372.5 264.2 393.3 265.2 394.1 264.5C394.8 263.8 394 254.5 393.6 251.2C393 246 390.7 228.3 389.4 226.8C388.2 225.3 370.7 225.8 365.3 225.7C362.2 225.6 358.6 225.8 355 226C355.7 229.9 356.6 235.7 355.8 237.7C355.5 238.7 347.9 238.3 343.9 238.9ZM286.7 231.6C287 232.7 287.3 234 287.7 235.6C294.1 233.4 304.9 230.3 311.7 228.6C315.8 227.6 320.1 226.3 324.3 225.6C323.5 220.5 322.2 213.1 323.4 210.8C324.7 208.1 330.9 203.8 338 203.1C345.1 202.3 350.7 205.9 351.4 208.4C352.5 213.1 353.7 218.3 354.3 221.9C356.2 221.8 360.8 221.8 366.1 221.7C374.3 221.6 384.3 221.6 388.7 221.6C388.4 220.2 388.2 218.9 388 218C386.9 212.1 381.3 190.1 378.4 183.3C375.6 176.7 367.4 171.8 359.6 170.7C350.1 169.3 339.8 172.6 335.4 174.2C329.1 176.5 321.4 181 320.7 181.4C319.1 182.5 315.2 184.8 312.5 184.4C311.2 184.2 310.3 179.3 309.5 177.7C308.7 176.1 307 175.7 306 176.3C304.9 176.8 297.1 179.6 295.3 180.4C293.5 181.2 280.7 184.9 278 185.4C275.3 185.9 273.8 187.7 274.3 188.7C274.8 189.9 284.3 223.1 286.7 231.6ZM397.3 327.4C398.2 325 398.1 317.2 398.1 312.2C398.1 309.9 397.9 301.7 397.3 299.9C396.7 298.1 387.5 295.9 383.5 295.6C374.5 294.8 364.3 294.1 359.6 294.3C354.8 294.5 337.7 296.4 337.7 294.3C337.7 291.6 341.9 291.3 348.3 290.5C354.4 289.8 381.5 289.7 386.8 290.3C390.1 290.6 393.5 291.5 396.4 292.1C396.7 288.9 396.3 283.8 396.2 281.5C396.1 278.3 396.4 271.1 395.3 269.6C394.2 268.1 373.2 267.6 363.2 267.8C354.7 267.9 340.2 269.3 320.7 274.2C312.8 276.2 298.3 280.4 297.5 282.1C296.7 283.8 297.3 288.9 297.6 291.5C297.9 294.3 298.2 299.4 299.5 305.6C299.7 306.7 300.6 307.7 301.3 308.7C303.6 309.2 308.6 309.1 310.6 308.9C312.7 308.7 326.6 307.9 335.9 307.5C347.3 307 360.7 308.3 363.8 309.1C366.9 309.9 364.8 311.6 364.8 311.6C364.8 311.6 345.9 312.3 330.5 313C323.3 313.3 311.9 314.4 304.7 315.3C303.2 315.5 301.8 316 300.7 316.2C301 319.2 301.2 322.3 301.2 325.3C301.3 329.2 301.2 334.2 300.9 339.1C307.4 336.9 318.9 333.4 336.3 331.4C360.8 328.6 373.8 328.9 380 329.1C381 329.1 381.9 329.1 382.5 329.1C384.6 329.1 389.5 329.4 394.5 329.7C395.8 330 396.9 328.4 397.3 327.4ZM419.7 400.8C423.8 399.3 424.6 400.5 422.7 402.1C420.8 403.7 406.8 410.8 400.4 412.6C395.5 414 391.6 414.5 389.6 414.8C387.7 415 386.4 414.8 385.3 414.5C384.8 412.6 384.1 410.5 383.2 408.3C380.8 402.9 379.1 399.8 376.6 395.8C371.9 388.2 367.1 382.8 362.4 379.9C361.5 379.3 360.6 378.8 359.7 378.2C359.3 377.9 358.9 377.7 358.5 377.4V368.1C357.9 365.6 352 364.5 348.7 363.5C345.5 362.5 339 362.5 337.6 363.5C336.6 364.2 336.3 368.4 336.3 370.5C329.6 370.2 323.6 371.6 318.6 373.4C313 375.4 303.7 379 295.6 384C293.1 385.5 290.4 387.8 289.9 386.9C289.4 386 294.1 378.7 295.7 373.4C297.6 367.2 299.5 354.2 300.4 343.6C306.1 341.5 317.9 337.6 336.6 335.4C360.8 332.6 373.5 333.7 379.7 333.9C380.8 333.9 381.6 333.9 382.3 333.9C384.2 333.9 392.4 334.3 393.6 334.5C395.5 334.7 397.7 337.3 398.2 338.7C399.4 341.8 398.2 364.7 397.2 368.2C396.1 371.6 392.3 374.1 392.3 376C392.3 377.9 396 381.6 397.4 383.7C400.4 388.2 398.2 395.9 399.1 397.1C400.1 398.5 405.5 400.3 407.3 400.5C409.2 400.6 416.9 401.8 419.7 400.8ZM360.3 353.8C362.4 353.8 365.1 353.9 365.1 350.8C365.1 347.2 362.6 347.3 362.6 347.3C360.9 347.2 356.5 346.9 352.2 347C348.1 347.1 342.2 348 341.4 348C339.9 348 338 348.3 338 351.3C338 353.9 340.9 353.9 342.8 353.9C342.8 353.9 347.7 353.6 352.3 353.6C355.7 353.7 359.4 353.8 360.3 353.8ZM379.5 410C380.3 411.8 380.9 413.7 381.3 415.3C380.2 416.6 375 424.8 371.6 428.6C367.9 432.7 362.1 436.8 359.7 437.9C357.2 439 346.5 439.3 339.5 440.1C332.5 440.9 317.3 443.3 316.4 441.4C315.5 439.6 320.9 435.8 324.6 431.8C326.9 429.3 328.3 427.1 329.3 426C331.9 423.1 334.8 417.7 331 418C327.2 418.3 316.4 421.6 303.5 429.2C296.6 433.2 285 440.4 278.9 442.2C272.8 444 258.2 445.4 253.7 445.4C230 445.4 193.9 442.7 192.3 442.5C190.7 442.2 191.1 439.3 191.1 438C191.1 436.7 190.9 433 191.2 431.2C191.5 429.3 192.6 428.9 193.9 428.7C195.2 428.4 224.5 428.9 242 420.6C258.4 412.9 274.7 400.6 282.3 396C287.9 392.6 293.5 389.2 297.4 386.8C304.5 382.6 314.6 378.5 319.9 376.6C325.8 374.6 333.6 373.8 341.9 374.8C348.9 375.7 357.3 380.8 361 383.8C365 387 368.7 390.6 373.1 397.7C375.6 401.3 377.3 404.8 379.5 410ZM339.7 397.8C340.4 395.5 342.3 391.4 339.7 389.7C337.8 388.5 336.5 389.3 334.6 389.7C332.7 390.1 326.8 393.1 322.2 395.2C317.6 397.3 306 404.7 304.3 407C302.6 409.2 304.9 409.5 305.9 409.5C306.9 409.5 310.8 408.2 312.9 407.6C315 407 321.3 405.5 326.6 405.1C332.6 404.7 335.7 405.9 337.1 404.8C337 404.8 338.9 400.1 339.7 397.8ZM425.1 419.3C420.1 419.3 415.7 422.9 415.7 428.4C415.7 434 420.1 437.6 425.1 437.6C430.1 437.6 434.5 434 434.5 428.4C434.4 422.9 430 419.3 425.1 419.3ZM425.1 435.7C421.3 435.7 418.2 432.7 418.2 428.5C418.2 424.3 421.3 421.3 425.1 421.3C428.9 421.3 432 424.3 432 428.5C431.9 432.6 428.8 435.7 425.1 435.7ZM421.4 433.6H423.4V429.2H424.7L427.2 433.6H429.3L426.6 429.1C428.1 429 429.3 428.2 429.3 426.4C429.3 424.2 427.9 423.4 425.3 423.4H421.4V433.6ZM423.4 424.9H425.1C426 424.9 427.2 425.1 427.2 426.2C427.2 427.4 426.3 427.6 425.2 427.6H423.4V424.9Z" fill="url(#paint0_linear_1_2)" stroke="black" stroke-width="4" mask="url(#path-5-inside-1_1_2)"/>
<defs>
<linearGradient id="paint0_linear_1_2" x1="328.228" y1="445.4" x2="328.228" y2="170.362" gradientUnits="userSpaceOnUse">
<stop offset="0.265" stop-color="#C8102E"/>
<stop offset="0.47" stop-color="white" stop-opacity="0.8"/>
<stop offset="0.715" stop-color="#006341"/>
</linearGradient>
</defs>
</svg>
